<svg width="48" height="48" viewBox="0 0 48 48" fill="none" xmlns="http://www.w3.org/2000/svg">
<circle cx="24" cy="24" r="24" fill="#10C843" fill-opacity="0.1"/>
<path d="M12.0571 16.8L17.2501 18.204V24.261C17.2525 25.8285 17.8762 27.3311 18.9846 28.4395C20.093 29.5479 21.5956 30.1716 23.1631 30.174H24.8371C26.4046 30.1716 27.9072 29.5479 29.0156 28.4395C30.124 27.3311 30.7477 25.8285 30.7501 24.261V18.204L35.9431 16.8C36.13 16.7455 36.2942 16.6318 36.4111 16.476C36.5279 16.3202 36.5911 16.1308 36.5911 15.936C36.5911 15.7413 36.5279 15.5518 36.4111 15.396C36.2942 15.2402 36.13 15.1266 35.9431 15.072L24.2431 11.472C24.0729 11.4205 23.8913 11.4205 23.7211 11.472L12.0211 15.072C11.8352 15.1303 11.6732 15.2474 11.5595 15.4056C11.4458 15.5639 11.3865 15.7547 11.3906 15.9495C11.3946 16.1443 11.4618 16.3326 11.582 16.4859C11.7022 16.6393 11.8689 16.7495 12.0571 16.8ZM28.9501 24.261C28.9477 25.3511 28.5136 26.3959 27.7428 27.1667C26.972 27.9376 25.9272 28.3716 24.8371 28.374H23.1631C22.073 28.3716 21.0282 27.9376 20.2574 27.1667C19.4866 26.3959 19.0525 25.3511 19.0501 24.261V18.699L23.7571 20.004C23.9155 20.0521 24.0846 20.0521 24.2431 20.004L28.9501 18.699V24.261ZM24.0001 13.245L32.4961 15.9L24.0001 18.204L15.5041 15.9L24.0001 13.245Z" fill="#10C843"/>
<path d="M32.8021 30.642C32.6977 30.5088 32.5578 30.4078 32.3987 30.3505C32.2395 30.2932 32.0674 30.2819 31.9021 30.318L24.0001 32.1L16.0981 30.3C15.9328 30.2639 15.7606 30.2752 15.6014 30.3325C15.4423 30.3898 15.3024 30.4908 15.1981 30.624L11.5981 35.124C11.4936 35.2557 11.4281 35.414 11.409 35.581C11.3899 35.7481 11.418 35.9171 11.4901 36.069C11.5604 36.2255 11.674 36.3586 11.8175 36.4527C11.961 36.5468 12.1285 36.5979 12.3001 36.6H35.7001C35.8697 36.5995 36.0357 36.5511 36.1791 36.4603C36.3224 36.3695 36.4371 36.2401 36.5101 36.087C36.5821 35.9351 36.6102 35.7661 36.5911 35.599C36.572 35.432 36.5065 35.2737 36.4021 35.142L32.8021 30.642ZM14.1721 34.8L16.2511 32.199L23.8021 33.9C23.9327 33.9269 24.0674 33.9269 24.1981 33.9L31.7491 32.217L33.8281 34.8H14.1721Z" fill="#10C843"/>
</svg>
